<?xml version="1.0" encoding="utf-8"?>
<!-- Generator: Adobe Illustrator 26.1.0, SVG Export Plug-In . SVG Version: 6.00 Build 0)  -->
<svg version="1.1" id="Layer_1" xmlns="http://www.w3.org/2000/svg" xmlns:xlink="http://www.w3.org/1999/xlink" x="0px" y="0px"
	 viewBox="0 0 100 100" style="enable-background:new 0 0 100 100;" xml:space="preserve">
<style type="text/css">path{fill:#FFFFFF;}</style>
<path d="M53.2,70.7c-0.5-5.4-0.1-10.8-0.7-16.2c-0.1-0.8,0.1-2.3-0.5-2.5c-1-0.2-1.2,1.2-1.7,1.9C46.2,59.3,44,66,41.6,72.5
	c-0.1,0.2-0.1,0.6-0.2,0.8c-0.2,0.6-0.4,1.2-1,1.3c-0.7,0.1-0.8-0.6-1.1-1.1c-1.2-3.4-3.4-6-5.1-9.1c-0.2-0.4-0.4-0.7-0.7-0.6
	c-0.4,0.1-0.2,0.6-0.2,1c0.1,1.7,0.1,3.4,0.2,5.1c0.4,6,0,12,0.6,18c0.1,0.8,0.1,1.6-0.2,2.4C33.6,91.1,33,92,32.2,92
	c-1.1,0-1-1.3-1-2.1c0.2-4.1,0.2-8.1,0.2-12.1c0-5.8-0.4-11.6-0.5-17.4c0-1.6,0.2-3.1,0.4-4.7c0.1-0.6,0-1.2,0.7-1.3
	c0.6-0.1,1.2,0.1,1.6,0.7c0.2,0.5,0.4,1,0.5,1.3c1.6,4.1,3.6,8,5.7,11.7c0.2,0.4,0.5,1,1,0.8c0.5-0.1,0.4-0.8,0.5-1.2
	c1.9-7.6,5.3-14.3,9.9-20.1c1-1.2,1.9-2.3,3.3-2.8c0.7-0.4,1.2,0,1.2,1c0,0.1,0,0.2,0,0.2C54.6,53.7,56,61.4,56,68.9
	c0,3.4,0,6.8,0,10.2c0,0.7,0,1.2-0.8,1.5c-1.5,0.5-1.8,0.5-1.6-1.2C54,76.5,53.6,73.6,53.2,70.7z M60.9,64.8
	c0.1,0.6,0.2,1.2,0.5,1.7c1.2,2.9,2.5,3.5,5.2,2.7c1.5-0.5,2.7-1.5,3.7-2.7c1.5-1.7,2.9-3.4,4.4-5.1c0.4-0.4,0.7-0.8,1.2-1.2
	c0.7-0.5,1.8-1.5,2.5-0.4c0.6,0.8-0.2,2.2-0.7,2.7c-3.9,3.6-7.4,7.9-12.6,8.9c-0.6,0.1-1.1,0.4-1.7,0c-3.7-2.1-5.9-6.4-5.4-11.5
	c0.5-5,2.7-8.8,4.7-12.8c1-1.8,2.5-3,4.1-4c0.7-0.5,1.2-0.4,1.8,0.4c1.2,1.8,1.6,3.7,1.6,5.9c0.1,4.1-2.2,6.8-4.5,9.3
	c-1.1,1.2-2.4,1.9-3.6,2.8C60.5,62.6,60.5,62.6,60.9,64.8z M61.3,59.1c2.5-1.9,4.5-4.6,6.3-7.4C68,51,68,50.1,68,49.8
	c0-0.5,0-0.7,0-1c-0.1-0.8-0.1-1.7-0.8-2.1c-0.7-0.2-1.1,0.5-1.6,1c-2.7,2.8-4,6.7-5.1,10.5c-0.1,0.4-0.1,0.8,0.1,1.1
	C60.7,59.4,61.1,59.2,61.3,59.1z M86.4,11c1.2,9,2.3,17.9,3,27c0.4,4.6,1.1,9.1,1.7,13.7c0.2,0.6,0.3,1.2,0.4,1.8
	c0.3,1.3,1.4,1.3,2.1,1.5c0.5,0.2,0.9-0.4,1.3-1.1c0.3-1,0.7-1.9,0.2-3.1c-1-2.6-1.9-5.4-2.1-8.3c-0.5-5.9-1.5-11.9-2.2-17.8
	c-0.8-5.3-1.7-10.6-2.7-15.8c-0.3-0.9-0.4-1.8-1.5-1.7c-1.1,0.1-0.7,1.1-0.7,2.2C86,9.9,86,10.5,86.4,11z M91.5,62
	c-0.3,0.1-0.7,0.4-0.8,0.6c-1.1,2-2.1,4.2-1.7,6.7c0.1,1.1,0.7,1.6,1.7,1.8c2.3,0.6,4.7-2.3,4.7-4.8C95.7,64.2,93.5,61.8,91.5,62z
	 M27.8,20.1c-1.9,1.4-3.8,2.6-5.6,3.9c-1,0.7-1.5,0.5-1.6-0.8c-0.5-4.1-1.3-8.1-1.5-12.2c-0.1-0.8,0.3-2.1-0.5-2.3
	c-0.7-0.3-0.2,1.3-0.7,1.8c-0.8,1-1,1.9-0.8,3.4c0.5,3.7,0,7.3,0.7,10.8c0.2,1.5-0.2,2.5-1.6,2.9c-1.6,1.1-2.9,2.4-4.5,3.5
	c-1.1,0.9-1.3,0.8-1.3-0.7c0-2.4-0.3-4.8-0.8-7.1c-0.4-2.1-0.8-4.3-0.8-6.5c0-1.6-0.4-3.1-0.6-4.7c-0.2-0.7-0.6-1-1-0.2
	c-0.3,0.9-1.5,1.4-1.3,3c0.3,2.3,0.1,4.6,0.5,6.9c0.6,3.8,1,7.5,1.3,11.6c0.2,1,0,1.9-0.8,2.5c-0.8,0.6-1.4,1.2-2.1,1.8
	c-0.9,0.7-1.7,1.8-2.4,2.8c-0.3,0.3-0.3,0.8-0.1,1.3c0.4,0.6,0.8,0.3,1.2,0.1c1.1-0.6,2.3-1.4,3.4-2.1C8,39,8.2,39,8.2,40.5
	c0.1,5.6,1,11.1,1.6,16.7c0.3,2.4,0.6,4.7,1,7.1c0.3,1.7,1.4,1.1,2.1,1.1c0.9,0.1,0.6-1,0.5-1.6c-0.4-1.9-0.9-3.7-1-5.6
	c-0.6-6.9-0.8-13.8-1.3-20.7c-0.1-0.9,0.1-1.3,0.7-1.7c1.8-1.2,3.5-2.6,5.2-3.9c1.2-0.9,1.3-0.9,1.7,0.7c0.8,5.4,1.7,10.8,2.5,16.2
	c0.6,3.3,1.1,6.4,1.7,9.7c0.3,1.1-0.2,2.9,1,2.9c0.9,0,1.2-2.1,1.1-3.3c-0.3-3.7-0.3-7.5-1.1-11c-1.3-5.5-1.7-11.2-2.5-16.6
	c-0.3-1.5,0.2-2.4,1.3-3.1c2.2-1.5,4.2-3,6.4-4.5c0.7-0.5,1.4-1,0.8-2.3C29.3,19.3,28.6,19.5,27.8,20.1z M55.8,21.6
	c0.6-6.8,2.5-13.3,8.6-17.2c1.9-1.2,2.5-1.2,4,0.7C69,6,69.7,6.7,70.3,7.6c1.2,2.1,1.2,3.5-0.1,5.4c-1.7,2.5-4.1,3.9-6.5,5.1
	c-1.5,0.7-2.7,1.8-3.9,2.9c-0.6,0.5-0.7,1-0.4,1.8c0.4,0.7,0.6,1.5,1,2.2c0.6,1.1,1.3,1.6,2.7,1.1c3.4-1.2,6.5-3.1,9.7-4.8
	c2.8-1.6,5.2-3.9,8.1-5.1c0.4-0.1,0.8-0.5,1.2-0.5c0.8-0.1,1.2,0.8,1,1.8c-0.2,1-0.7,1.7-1.6,2.1c-4.4,2.2-8.6,4.4-12.7,7.3
	c-2.1,1.5-4.4,1.9-6.7,2.4C58.1,29.8,56,27.4,55.8,21.6z M59.3,18.5c0.1,0.1,0.5,0,0.6-0.2c2.3-2.4,5-4.1,7.5-6.2
	c0.4-0.2,0.7-0.6,1-0.8c1-1.1,1-1.9-0.2-2.9c-0.4-0.5-0.9-0.7-1.8-0.7c-0.7,0-1.7,0.4-2.4,1.1c-2.5,2.3-4,5.4-4.7,8.9
	C59.2,17.9,59.1,18.3,59.3,18.5z M42.4,18.9c1.3,7.7,2.7,15.5,4,23.2c0.1,0.5,0,1.4,0.6,1.5c0.7,0.2,0.8-0.8,1.2-1.3
	c0.6-0.6,0.5-1.5,0.4-2.3c-0.2-1.6-0.3-3.1-0.7-4.7c-1.3-5.4-1.1-10.6,0.8-15.8c0.9-2.4,2-4.5,4.5-4.7c0.4,0,0.8-0.3,1-0.5
	c0.4-0.3,1.1-0.6,1-1.3c0-0.7-0.6-0.9-1.1-1.1c-2.9-1.2-6.5,0.9-7.7,4.5c-0.5,1.1-0.6,2.2-1.1,4c-0.3-1.8-0.5-3-0.6-4.2
	c-0.2-1.4-1.3-1-1.9-1c-0.6-0.2-0.6,0.7-0.5,1.3C42.3,17.3,42.3,18.2,42.4,18.9z M34.4,18c-1.1,0.1-1.3,1.1-1.2,2.2
	c0,0.6,0,1.2,0.1,1.8c1,7.9,1.9,15.8,2.9,23.7c0.1,1,0.3,1.9,0.5,2.9c0.4,1.5,1,1.4,2.2,0.4c1.1-0.9,1-1.7,1-3.4
	c-0.4-3.1-0.7-6.7-1.5-10.3c-0.9-5-1.5-10.2-1.9-15.4C36.3,18.5,35.6,17.9,34.4,18z M34.3,15.5c0.7-1.2,0.6-2.7,0.8-4.2
	c-0.2-1.5-0.1-3-0.8-4.5c-0.3-0.5-0.5-1.1-1.1-1.1c-0.7,0-1.1,0.6-1.3,1.2c-1.1,2.9-0.6,5.8,0.6,8.6C33,16.5,33.7,16.5,34.3,15.5z
	 M93.9,76.9c0,0.4,0,1-0.6,1.3c-0.4,0.3-0.7,0.4-1,0.6c-0.1,0-0.3,0.1-0.4,0.2c-0.2,0.1-0.2,0.1-0.2,0.3c0.5,3-0.3,5.5-2.5,7.6
	c-1.6,1.5-3.4,2.6-5.1,3.5c-5.6,3.1-11.8,5.1-18.4,6.1c-0.9,0.1-1.7,0.2-2.5,0.2c-1,0-1.9-0.1-2.8-0.3c-1.3-0.3-2.6-0.9-3.6-1.9
	c-1.1-1.1-1.7-2.5-1.6-4.3c0-0.1,0-0.1,0-0.2c-0.3,0.1-0.5,0.2-0.7,0.2c-0.3,0-0.9,0-1.2-0.7c-0.3-0.6,0-1.1,0.2-1.5
	c0.8-1.1,1.5-1.8,2.2-2.2c0.4-0.2,0.7-0.6,1-1.1c1.6-2.8,3.9-5,6.9-6.7c4.5-2.7,9.4-4.3,14.7-4.7c0.2,0,0.4,0.1,0.6,0.1
	c0.2,0.1,0.5,0.1,0.7,0.1c0.7,0.1,1.5,0.2,2.2,0.3c1,0.2,2,0.3,3,0.3c0.1,0,0.5,0,0.5,0c1.9,0,3.5,1.2,4.5,2.1
	c0.3,0.3,0.4,0.3,0.5,0.3c0,0,0.1-0.1,0.2-0.1c0.8-0.4,1.6-0.4,2.1-0.4C93.6,76,93.9,76.6,93.9,76.9z M88.4,77.2
	c-0.7-0.4-1.4-0.9-2.2-1.1c-0.7-0.2-1.4-0.3-2.1-0.3c-1.2,0-2.5,0.3-3.8,0.8c-0.2,0-0.3,0.1-0.5,0.2c-0.2,0-0.4,0.1-0.6,0.2h-0.1H79
	c-0.1,0-0.4,0-0.6-0.2c-0.2-0.2-0.2-0.4-0.2-0.6c0-0.2,0.2-0.5,0.4-0.6c0-0.1,0.2-0.1,0.3-0.2c0.2-0.1,0.2-0.1,0.3-0.2
	c0.1,0,0.2-0.1,0.3-0.1c-0.1,0-0.1,0-0.1,0c-0.3,0.1-0.5,0.1-0.8,0.1c-2.1,0.1-4.3,0.5-6.9,1.2c-4.3,1.3-7.4,2.9-10.1,5.2
	c-2.6,2.2-4.1,4.6-4.7,7.5c-0.2,1.3-0.3,2.7,0.5,3.7c0.8,0.9,1.6,1.6,2.6,2c0.9,0.3,1.9,0.5,3.1,0.5c1.2,0,2.4-0.2,3.4-0.4
	c5.5-1,9.8-2.3,13.7-4.1l0.5-0.2c2.5-1.1,4.9-2.3,7-4.1c0.7-0.6,1.4-1.5,2.1-2.6C91,81.8,90.3,78.4,88.4,77.2z M81.4,81.6h-0.2H81
	c-0.1,0-0.6,0.1-0.8,0.7c-0.1,0.5-0.3,1-0.5,1.6c-1.4,3.1-3.6,5.2-6.9,6.7c-0.8,0.4-1.5,0.5-2.3,0.5c-2.1,0-3.9-1.4-5.1-3.9
	c-0.3-0.5-0.5-1-0.7-1.6c-0.1-0.2-0.2-0.5-0.3-0.7l-0.1-0.1c-0.1-0.2-0.3-0.5-0.7-0.5h-0.2h-0.1c-0.2,0.1-0.6,0.5-0.4,1.3
	c0.5,1.4,1.2,3.2,2.4,4.6c1.3,1.6,2.9,2.5,5.2,2.7h0.1h0.1c0.2-0.1,0.5-0.1,0.9-0.2c2.5-0.4,4.5-2,6.2-3.4c1.4-1.2,2.5-2.7,3.5-4.9
	c0.3-0.6,0.5-1.1,0.6-1.6C82,82.4,81.9,81.8,81.4,81.6z M75.2,82.4c0.9-0.1,1.4-1.1,1.4-2c0-0.9-0.7-1.7-1.4-1.7c-0.8,0-1.3,1-1.3,2
	C73.9,81.9,74.5,82.4,75.2,82.4z M69.9,84c0.9,0,1.6-0.9,1.6-1.6c0-0.8-0.4-1.3-1.2-1.4h-0.2c-0.7,0-1.2,0.6-1.2,1.4
	C68.8,83.1,69.2,83.8,69.9,84z"/>
</svg>
