<?xml version="1.0" standalone="no"?>
<!DOCTYPE svg PUBLIC "-//W3C//DTD SVG 20010904//EN"
 "http://www.w3.org/TR/2001/REC-SVG-20010904/DTD/svg10.dtd">
<svg version="1.0" xmlns="http://www.w3.org/2000/svg"
 width="700.000000pt" height="700.000000pt" viewBox="0 0 700.000000 700.000000"
 preserveAspectRatio="xMidYMid meet">
<metadata>
Created by potrace 1.14, written by Peter Selinger 2001-2017
</metadata>
<g transform="translate(0.000000,700.000000) scale(0.100000,-0.100000)"
fill="#000000" stroke="none">
<path d="M4766 6975 c-123 -44 -351 -244 -456 -399 -101 -151 -203 -403 -234
-581 -3 -16 -8 -41 -11 -55 -3 -14 -8 -41 -10 -60 -3 -19 -7 -44 -10 -55 -5
-26 -18 -163 -19 -195 0 -60 15 -183 30 -246 69 -285 252 -391 549 -320 211
51 294 86 455 196 196 132 425 265 745 430 88 45 175 93 194 107 98 75 104
263 8 263 -43 0 -222 -90 -343 -173 -58 -39 -113 -76 -122 -82 -9 -5 -22 -15
-28 -21 -29 -26 -191 -129 -267 -170 -396 -213 -614 -316 -712 -337 -94 -19
-142 26 -219 202 -50 117 -48 140 15 201 85 82 188 155 319 226 69 37 159 89
200 117 145 97 295 277 318 384 13 57 7 118 -17 183 -44 119 -257 390 -306
390 -7 0 -19 2 -27 5 -7 2 -31 -2 -52 -10z m135 -313 c33 -13 93 -72 113 -110
27 -53 -12 -130 -99 -195 -191 -143 -435 -338 -504 -403 -98 -92 -110 -101
-121 -84 -20 32 46 261 114 400 54 109 98 174 180 265 116 128 214 168 317
127z"/>
<path d="M2294 6814 c-16 -9 -32 -21 -36 -27 -11 -17 -49 -118 -54 -143 -25
-133 -23 -241 7 -361 37 -151 89 -253 127 -253 8 0 30 16 48 35 53 57 78 162
79 340 1 286 -72 460 -171 409z"/>
<path d="M6295 6686 c-24 -36 -11 -190 20 -241 11 -17 31 -126 40 -220 5 -51
16 -137 25 -200 5 -33 12 -85 15 -115 3 -30 7 -66 10 -80 2 -14 7 -54 11 -90
3 -36 8 -73 9 -82 2 -9 6 -43 10 -75 3 -32 8 -76 10 -98 3 -22 9 -85 15 -140
6 -55 13 -113 15 -130 2 -16 7 -61 11 -100 3 -38 8 -81 9 -95 2 -14 6 -59 9
-100 4 -41 9 -86 11 -100 2 -14 6 -59 10 -100 3 -41 8 -95 10 -120 8 -84 15
-165 20 -230 5 -72 11 -129 25 -240 5 -41 12 -96 15 -122 3 -26 7 -62 10 -80
2 -18 9 -71 15 -118 6 -47 13 -96 15 -110 2 -14 13 -96 24 -183 11 -87 22
-161 25 -165 2 -4 7 -23 10 -42 10 -64 14 -78 30 -108 19 -38 76 -64 139 -66
48 -1 52 1 77 38 26 37 48 104 55 163 3 34 -18 117 -50 200 -65 162 -112 366
-130 558 -3 39 -8 84 -10 100 -2 17 -7 57 -10 90 -6 59 -69 556 -79 625 -11
75 -26 187 -30 220 -19 151 -38 293 -46 335 -10 53 -18 108 -26 165 -2 19 -8
58 -14 85 -5 28 -12 68 -15 90 -3 22 -14 92 -25 155 -11 63 -22 129 -25 145
-3 17 -8 46 -11 65 -3 19 -8 46 -10 60 -3 14 -13 70 -24 125 -10 55 -24 129
-30 165 -15 81 -37 150 -58 173 -24 27 -88 23 -107 -7z"/>
<path d="M1210 6586 c-5 -7 -8 -15 -6 -17 12 -11 -17 -102 -43 -141 -45 -64
-54 -123 -37 -248 9 -68 15 -204 21 -422 3 -108 12 -245 21 -304 23 -154 4
-220 -73 -260 -21 -10 -96 -66 -168 -124 -175 -142 -205 -164 -242 -184 -30
-15 -33 -15 -41 1 -5 10 -12 81 -15 158 -3 77 -8 154 -11 170 -3 17 -12 73
-21 125 -8 52 -17 104 -19 115 -22 111 -46 238 -51 275 -3 25 -8 56 -10 70 -2
14 -7 83 -10 153 -3 71 -8 144 -10 163 -3 19 -7 51 -10 72 -34 236 -48 250
-130 124 -55 -84 -71 -124 -69 -162 3 -35 13 -216 19 -335 6 -106 9 -149 19
-211 6 -40 7 -51 26 -194 6 -47 13 -96 15 -110 5 -30 12 -94 20 -175 3 -33 8
-76 10 -95 15 -127 29 -308 27 -350 -3 -59 -22 -87 -96 -147 -39 -31 -73 -59
-76 -62 -3 -4 -31 -28 -63 -55 -75 -63 -187 -210 -187 -245 1 -79 35 -98 103
-58 24 14 103 64 176 111 74 47 138 86 143 86 17 0 26 -45 28 -140 1 -52 3
-115 5 -140 2 -25 6 -92 10 -149 4 -57 8 -111 10 -120 1 -9 6 -45 9 -81 4 -36
9 -82 11 -102 9 -72 14 -114 25 -208 6 -52 13 -111 16 -130 2 -19 9 -77 14
-130 6 -52 12 -111 14 -130 3 -19 8 -60 12 -90 3 -30 8 -62 9 -71 2 -9 6 -40
10 -70 3 -30 8 -61 10 -69 2 -8 6 -37 10 -64 14 -115 36 -219 51 -242 9 -13
26 -27 39 -30 36 -9 127 3 136 17 13 22 11 39 -25 207 -42 193 -48 231 -61
412 -3 41 -7 102 -10 135 -2 33 -7 105 -10 160 -3 55 -8 127 -10 160 -2 33 -7
103 -10 155 -8 152 -14 258 -21 365 -3 55 -7 127 -9 160 -2 33 -7 112 -11 175
-11 171 -10 205 9 233 9 14 58 54 109 90 51 36 121 87 154 113 34 27 78 63 99
79 62 50 129 94 142 95 17 0 40 -38 47 -80 3 -19 8 -45 10 -56 2 -12 7 -37 9
-55 10 -63 21 -134 22 -139 1 -3 5 -30 9 -60 4 -30 11 -77 16 -105 5 -27 12
-68 15 -90 3 -22 8 -56 12 -75 3 -19 7 -44 8 -55 1 -11 4 -33 8 -50 3 -16 9
-52 13 -80 3 -27 8 -59 9 -70 8 -52 35 -224 40 -260 7 -46 63 -377 71 -415 2
-14 7 -41 10 -60 2 -19 9 -57 14 -85 11 -60 14 -76 40 -225 10 -63 22 -146 25
-185 7 -80 25 -115 60 -115 36 0 63 35 78 104 14 63 14 109 3 286 -4 58 -9
139 -12 180 -8 125 -14 203 -20 250 -8 61 -33 211 -39 230 -2 8 -6 26 -9 40
-3 14 -7 36 -10 50 -9 40 -44 232 -51 274 -3 21 -7 41 -9 45 -2 3 -7 37 -11
76 -4 38 -8 72 -10 75 -2 3 -6 34 -10 70 -4 36 -8 72 -10 80 -2 8 -6 44 -10
80 -4 36 -9 74 -11 85 -2 11 -6 40 -8 65 -6 59 -15 130 -26 205 -13 82 -22
156 -24 180 -3 35 24 101 52 128 15 14 131 98 257 186 303 211 331 232 346
259 24 44 5 117 -43 162 -28 26 -69 19 -128 -22 -433 -301 -459 -318 -490
-318 -23 0 -39 54 -55 175 -26 207 -27 213 -40 285 -6 34 -17 115 -34 255 -19
152 -23 194 -25 317 -2 69 -6 129 -9 135 -11 17 -45 22 -57 9z"/>
<path d="M3639 6357 c-177 -65 -307 -241 -365 -495 -10 -42 -19 -80 -20 -84
-1 -5 -2 -16 -3 -25 -2 -27 -19 -2 -24 37 -15 102 -49 275 -57 290 -5 10 -22
22 -37 27 -31 11 -103 6 -117 -7 -14 -14 -7 -168 14 -269 11 -53 24 -125 30
-161 5 -36 12 -76 15 -90 11 -58 14 -77 19 -110 3 -19 8 -46 10 -60 3 -14 14
-79 26 -145 25 -143 26 -150 35 -195 3 -19 8 -46 9 -60 2 -14 14 -81 26 -150
12 -69 24 -136 26 -150 3 -24 9 -60 19 -110 7 -36 13 -66 25 -140 5 -36 12
-77 15 -91 3 -14 16 -95 30 -180 33 -204 31 -198 60 -205 19 -5 30 0 45 17 10
13 19 27 20 32 0 4 12 26 27 50 22 34 27 54 27 107 1 76 -23 239 -69 475 -73
374 -64 646 31 985 91 320 195 462 359 485 53 8 147 62 165 95 5 10 10 30 10
43 0 86 -209 136 -351 84z"/>
<path d="M2373 5882 c-12 -9 -27 -30 -33 -47 -12 -32 -12 -184 0 -262 5 -26
11 -75 14 -108 4 -33 8 -67 11 -75 2 -8 6 -46 10 -83 3 -37 8 -76 10 -85 1 -9
6 -44 9 -77 4 -33 9 -73 11 -90 4 -27 10 -73 31 -255 19 -168 25 -213 29 -240
2 -14 7 -52 10 -85 3 -33 8 -71 10 -85 2 -14 6 -50 10 -81 3 -31 7 -65 9 -75
2 -11 7 -50 11 -87 3 -37 8 -76 10 -85 1 -9 6 -44 10 -77 3 -33 9 -76 11 -95
3 -19 7 -53 10 -75 23 -189 52 -282 90 -291 41 -10 147 66 171 123 21 52 21
217 -1 330 -3 12 -7 48 -11 80 -3 32 -8 73 -11 91 -2 17 -6 47 -8 65 -3 17 -8
55 -11 82 -3 28 -8 61 -10 75 -3 14 -7 41 -10 60 -3 19 -14 80 -25 135 -17 92
-22 120 -36 225 -3 19 -9 60 -14 90 -5 30 -12 79 -15 109 -4 30 -8 62 -10 71
-2 9 -6 41 -9 71 -3 30 -8 65 -10 79 -3 14 -9 75 -16 135 -6 61 -13 128 -15
150 -2 22 -7 74 -10 115 -4 41 -8 96 -10 122 -6 68 -37 133 -74 152 -40 21
-110 20 -138 -2z"/>
<path d="M4882 4039 c-72 -28 -227 -158 -290 -244 -45 -61 -186 -335 -256
-498 -45 -106 -100 -271 -115 -347 -6 -30 -13 -68 -17 -85 -3 -16 -8 -88 -11
-160 -10 -247 56 -455 196 -622 66 -79 192 -179 237 -188 46 -10 235 39 329
85 73 35 203 113 215 129 3 4 29 26 59 49 64 50 134 114 329 304 178 173 210
232 165 309 -26 43 -57 47 -117 15 -69 -36 -112 -77 -251 -241 -65 -77 -124
-145 -129 -151 -6 -6 -31 -36 -56 -65 -155 -187 -283 -270 -440 -286 -119 -11
-196 41 -263 180 -65 132 -90 305 -51 348 10 12 84 67 164 124 80 56 165 125
190 152 174 191 251 307 302 458 27 78 32 107 34 215 2 69 -1 143 -6 165 -5
22 -11 55 -15 72 -12 69 -90 237 -124 266 -23 21 -53 27 -79 16z m31 -327 c23
-44 29 -82 28 -177 -2 -134 -3 -137 -125 -310 -123 -173 -304 -368 -380 -409
-71 -38 -82 -4 -41 134 92 318 218 569 358 718 92 97 129 107 160 44z"/>
<path d="M3895 3878 c-65 -34 -118 -82 -198 -180 -360 -445 -659 -1059 -764
-1573 -7 -33 -13 -41 -34 -43 -34 -4 -43 8 -147 198 -159 291 -320 638 -372
798 -17 55 -60 92 -106 92 -69 0 -71 -4 -90 -152 -21 -169 -24 -394 -10 -706
21 -468 28 -1275 12 -1547 -16 -288 -16 -345 -1 -376 42 -81 155 -23 191 98
13 44 13 116 -1 338 -3 39 -7 183 -10 320 -14 720 -17 834 -20 880 -1 28 -6
139 -9 248 l-7 197 25 0 c19 0 31 -12 57 -57 18 -32 82 -137 142 -233 108
-172 192 -329 237 -443 25 -63 51 -84 92 -74 29 8 50 44 72 125 25 89 196 550
268 722 67 157 172 368 245 489 44 72 131 200 143 211 3 3 14 23 24 45 35 75
55 96 89 93 38 -4 42 -16 50 -168 4 -63 9 -126 12 -140 7 -39 14 -207 20 -471
5 -247 13 -467 19 -549 7 -86 16 -176 20 -197 19 -96 26 -385 13 -530 -9 -114
-1 -121 100 -94 24 7 51 23 63 39 l22 27 -6 595 c-3 327 -7 611 -10 630 -2 19
-7 94 -11 165 -4 72 -9 139 -11 150 -6 32 -18 382 -17 519 1 155 10 329 22
414 22 150 -12 193 -114 140z"/>
<path d="M6700 2593 c-31 -12 -53 -40 -90 -118 -80 -166 -105 -292 -85 -426 4
-24 14 -56 23 -71 38 -65 182 -85 259 -36 208 134 256 415 98 573 -60 61 -156
97 -205 78z"/>
<path d="M5670 1753 c-14 -2 -65 -8 -115 -14 -49 -6 -130 -20 -180 -31 -49
-11 -94 -21 -100 -22 -110 -24 -376 -126 -515 -199 -314 -163 -477 -300 -628
-526 -56 -84 -90 -124 -127 -150 -93 -65 -175 -173 -175 -231 0 -68 63 -114
125 -90 14 5 25 6 26 2 0 -4 2 -32 3 -62 5 -75 13 -105 49 -173 61 -117 189
-203 353 -236 199 -42 433 -17 849 89 288 73 541 168 811 304 525 266 701 474
687 812 l-4 92 52 27 c83 43 89 48 101 87 29 99 -43 142 -187 112 -33 -7 -67
-15 -76 -19 -11 -4 -34 10 -70 40 -121 104 -196 132 -382 139 -70 3 -131 7
-135 10 -4 2 -32 7 -62 10 -30 4 -71 9 -90 11 -44 6 -116 14 -155 18 -16 2
-41 2 -55 0z m100 -152 c-48 -25 -67 -64 -47 -95 15 -22 42 -27 77 -13 52 21
213 66 255 73 138 20 249 1 360 -63 44 -25 90 -54 102 -65 54 -50 116 -224
107 -298 -11 -82 -17 -109 -34 -148 -23 -51 -106 -160 -164 -214 -92 -86 -323
-224 -506 -303 -47 -20 -98 -43 -115 -50 -192 -86 -585 -210 -765 -241 -14 -3
-32 -7 -40 -9 -8 -3 -33 -7 -55 -11 -22 -3 -43 -8 -46 -9 -5 -4 -85 -18 -179
-33 -72 -11 -250 -7 -310 8 -30 7 -75 23 -100 36 -63 31 -157 118 -182 168
-49 95 -21 290 67 466 104 208 324 411 605 557 235 123 586 229 821 249 41 4
75 8 77 9 1 1 26 3 54 4 l52 1 -34 -19z"/>
<path d="M5452 1337 c-62 -28 -90 -165 -45 -225 72 -97 208 13 172 141 -16 60
-83 104 -127 84z"/>
<path d="M5063 1169 c-67 -25 -76 -143 -14 -196 32 -28 47 -29 88 -3 54 32 76
95 53 154 -15 39 -80 63 -127 45z"/>
<path d="M5915 1132 c-34 -7 -55 -33 -71 -91 -66 -228 -243 -435 -473 -550
-109 -55 -168 -71 -259 -67 -127 5 -234 71 -319 196 -30 45 -123 232 -123 249
0 23 -43 61 -70 61 -59 0 -68 -59 -24 -169 98 -247 252 -407 436 -456 51 -13
159 -13 222 0 146 31 332 144 485 296 98 98 213 284 248 402 25 84 2 141 -52
129z"/>
</g>
</svg>
