<?xml version="1.0" encoding="utf-8"?>
<!-- Generator: Adobe Illustrator 26.1.0, SVG Export Plug-In . SVG Version: 6.00 Build 0)  -->
<svg version="1.1"
	 id="svg2793" xmlns:cc="http://creativecommons.org/ns#" xmlns:dc="http://purl.org/dc/elements/1.1/" xmlns:rdf="http://www.w3.org/1999/02/22-rdf-syntax-ns#" xmlns:serif="http://www.serif.com/" xmlns:svg="http://www.w3.org/2000/svg"
	 xmlns="http://www.w3.org/2000/svg" xmlns:xlink="http://www.w3.org/1999/xlink" x="0px" y="0px" viewBox="0 0 512 512"
	 style="enable-background:new 0 0 512 512;" xml:space="preserve">
<style type="text/css">
	.st0{fill:url(#Matrix_00000170266456068574012330000009830072570177472441_);}
</style>
<rect width="512" height="512"/>
<linearGradient id="Matrix_00000143599395647754641210000002036954877805531035_" gradientUnits="userSpaceOnUse" x1="20.3737" y1="20.3788" x2="491.6273" y2="491.6324">
	<stop  offset="0" style="stop-color:#00FF1E"/>
	<stop  offset="0.2128" style="stop-color:#00CE16"/>
	<stop  offset="0.4773" style="stop-color:#00980C"/>
	<stop  offset="0.7063" style="stop-color:#007106"/>
	<stop  offset="0.8881" style="stop-color:#005902"/>
	<stop  offset="1" style="stop-color:#005000"/>
</linearGradient>
<path id="Matrix" style="fill:url(#Matrix_00000143599395647754641210000002036954877805531035_);" d="M72.31,97.58
	c0,11.66-9.49,21.15-21.15,21.15c-11.67,0-21.16-9.49-21.16-21.15V61.91c0-11.67,9.49-21.16,21.16-21.16
	c11.66,0,21.15,9.49,21.15,21.16V97.58z M51.16,10.75C22.95,10.75,0,33.7,0,61.91v35.67c0,28.2,22.95,51.15,51.16,51.15
	c28.2,0,51.15-22.95,51.15-51.15V61.91C102.31,33.7,79.36,10.75,51.16,10.75 M277.16,97.58c0,11.66-9.49,21.15-21.16,21.15
	c-11.66,0-21.15-9.49-21.15-21.15V61.91c0-11.67,9.49-21.16,21.15-21.16c11.67,0,21.16,9.49,21.16,21.16V97.58z M256,10.75
	c-28.2,0-51.15,22.95-51.15,51.16v35.67c0,28.2,22.95,51.15,51.15,51.15c28.21,0,51.16-22.95,51.16-51.15V61.91
	C307.16,33.7,284.21,10.75,256,10.75 M482,97.58c0,11.66-9.49,21.15-21.15,21.15c-11.67,0-21.16-9.49-21.16-21.15V61.91
	c0-11.67,9.49-21.16,21.16-21.16c11.66,0,21.15,9.49,21.15,21.16V97.58z M460.85,10.75c-28.21,0-51.16,22.95-51.16,51.16v35.67
	c0,28.2,22.95,51.15,51.16,51.15c28.2,0,51.15-22.95,51.15-51.15V61.91C512,33.7,489.05,10.75,460.85,10.75 M153.58,139.05
	c8.28,0,15-6.72,15-15v-98.3c0-8.28-6.72-15-15-15s-15,6.72-15,15v98.3C138.58,132.33,145.3,139.05,153.58,139.05 M358.42,139.05
	c8.28,0,15-6.72,15-15v-98.3c0-8.28-6.72-15-15-15s-15,6.72-15,15v98.3C343.42,132.33,350.14,139.05,358.42,139.05 M72.31,450.11
	c0,11.66-9.49,21.15-21.15,21.15c-11.67,0-21.16-9.49-21.16-21.15v-35.68c0-11.66,9.49-21.15,21.16-21.15
	c11.66,0,21.15,9.49,21.15,21.15V450.11z M51.16,363.28C22.95,363.28,0,386.23,0,414.43v35.68c0,28.2,22.95,51.15,51.16,51.15
	c28.2,0,51.15-22.95,51.15-51.15v-35.68C102.31,386.23,79.36,363.28,51.16,363.28 M277.16,450.11c0,11.66-9.49,21.15-21.16,21.15
	c-11.66,0-21.15-9.49-21.15-21.15v-35.68c0-11.66,9.49-21.15,21.15-21.15c11.67,0,21.16,9.49,21.16,21.15V450.11z M256,363.28
	c-28.2,0-51.15,22.95-51.15,51.15v35.68c0,28.2,22.95,51.15,51.15,51.15c28.21,0,51.16-22.95,51.16-51.15v-35.68
	C307.16,386.23,284.21,363.28,256,363.28 M482,450.11c0,11.66-9.49,21.15-21.15,21.15c-11.67,0-21.16-9.49-21.16-21.15v-35.68
	c0-11.66,9.49-21.15,21.16-21.15c11.66,0,21.15,9.49,21.15,21.15V450.11z M460.85,363.28c-28.21,0-51.16,22.95-51.16,51.15v35.68
	c0,28.2,22.95,51.15,51.16,51.15c28.2,0,51.15-22.95,51.15-51.15v-35.68C512,386.23,489.05,363.28,460.85,363.28 M153.58,363.28
	c-8.28,0-15,6.72-15,15v98.3c0,8.28,6.72,15,15,15s15-6.72,15-15v-98.3C168.58,370,161.86,363.28,153.58,363.28 M358.42,363.28
	c-8.28,0-15,6.72-15,15v98.3c0,8.28,6.72,15,15,15s15-6.72,15-15v-98.3C373.42,370,366.7,363.28,358.42,363.28 M174.73,273.84
	c0,11.67-9.49,21.16-21.15,21.16c-11.67,0-21.16-9.49-21.16-21.16v-35.67c0-11.66,9.49-21.15,21.16-21.15
	c11.66,0,21.15,9.49,21.15,21.15V273.84z M153.58,187.02c-28.21,0-51.16,22.95-51.16,51.15v35.67c0,28.21,22.95,51.16,51.16,51.16
	c28.2,0,51.15-22.95,51.15-51.16v-35.67C204.73,209.97,181.78,187.02,153.58,187.02 M379.58,273.84c0,11.67-9.49,21.16-21.16,21.16
	c-11.66,0-21.15-9.49-21.15-21.16v-35.67c0-11.66,9.49-21.15,21.15-21.15c11.67,0,21.16,9.49,21.16,21.15V273.84z M358.42,187.02
	c-28.2,0-51.15,22.95-51.15,51.15v35.67c0,28.21,22.95,51.16,51.15,51.16c28.21,0,51.16-22.95,51.16-51.16v-35.67
	C409.58,209.97,386.63,187.02,358.42,187.02 M66.16,300.32v-98.3c0-8.28-6.72-15-15-15s-15,6.72-15,15v98.3c0,8.28,6.72,15,15,15
	S66.16,308.6,66.16,300.32 M474.57,300.32v-98.3c0-8.28-6.72-15-15-15s-15,6.72-15,15v98.3c0,8.28,6.72,15,15,15
	S474.57,308.6,474.57,300.32 M271,300.32v-98.3c0-8.28-6.72-15-15-15s-15,6.72-15,15v98.3c0,8.28,6.72,15,15,15
	S271,308.6,271,300.32"/>
</svg>
