<?xml version="1.0" encoding="utf-8"?>
<!-- Generator: Adobe Illustrator 26.1.0, SVG Export Plug-In . SVG Version: 6.00 Build 0)  -->
<svg version="1.1" id="Layer_1" xmlns="http://www.w3.org/2000/svg" xmlns:xlink="http://www.w3.org/1999/xlink" x="0px" y="0px"
	 viewBox="0 0 12 12" style="enable-background:new 0 0 12 12;" xml:space="preserve">
<style type="text/css">
	.st0{fill:#2B3B97;}
	.st1{fill:#FFFFFF;}
</style>
<rect class="st0" width="12" height="12"/>
<path class="st1" d="M3.04,0.5L0.5,4.88l1.31,0.75l2.54-4.38L3.04,0.5z M4.35,2.12L2.58,5.18L7.66,8.1l1.78-3.06L4.35,2.12z
	 M6.31,2.14L6.05,2.59l2,1.15l0.26-0.46C8.31,3.28,6.31,2.14,6.31,2.14z M10.19,4.61L7.65,8.99l1.31,0.75l2.54-4.38L10.19,4.61
	L10.19,4.61z M3.84,6.41L3.57,6.87l2,1.15l0.26-0.46L3.84,6.41L3.84,6.41z M3.76,7.48L1.43,11.5h1.58l1.93-3.34L3.76,7.48L3.76,7.48
	z"/>
</svg>
