<?xml version="1.0" encoding="utf-8"?>
<!-- Generator: Adobe Illustrator 26.1.0, SVG Export Plug-In . SVG Version: 6.00 Build 0)  -->
<svg version="1.1" id="Layer_1" xmlns="http://www.w3.org/2000/svg" xmlns:xlink="http://www.w3.org/1999/xlink" x="0px" y="0px"
	 viewBox="0 0 12 12" style="enable-background:new 0 0 12 12;" xml:space="preserve">
<style type="text/css">
	.st0{fill:#009B00;}
	.st1{fill:#FFFFFF;}
</style>
<rect class="st0" width="12" height="12"/>
<path class="st1" d="M4.28,7.04c0.05,0.66,0.57,1.17,1.5,1.23v0.48h0.41V8.26C7.16,8.2,7.72,7.68,7.72,6.93
	c0-0.68-0.43-1.03-1.2-1.21L6.19,5.65V4.33C6.61,4.38,6.87,4.6,6.93,4.91h0.72C7.6,4.28,7.06,3.79,6.19,3.73V3.25H5.78v0.49
	C4.96,3.82,4.4,4.32,4.4,5.02c0,0.62,0.42,1.01,1.11,1.17l0.27,0.07v1.4c-0.42-0.06-0.7-0.3-0.77-0.62H4.28z M5.78,5.55
	C5.37,5.46,5.15,5.26,5.15,4.97c0-0.32,0.24-0.57,0.63-0.64L5.78,5.55L5.78,5.55L5.78,5.55z M6.25,6.37C6.75,6.48,6.97,6.67,6.97,7
	c0,0.37-0.28,0.63-0.78,0.68V6.36L6.25,6.37z"/>
<path class="st1" d="M6,10.81c-2.66,0-4.81-2.15-4.81-4.81S3.34,1.19,6,1.19S10.81,3.34,10.81,6S8.66,10.81,6,10.81z M6,11.5
	c3.04,0,5.5-2.46,5.5-5.5S9.04,0.5,6,0.5S0.5,2.96,0.5,6S2.96,11.5,6,11.5z"/>
<path class="st1" d="M6,9.78C3.91,9.78,2.22,8.09,2.22,6S3.91,2.22,6,2.22S9.78,3.91,9.78,6S8.09,9.78,6,9.78z M6,10.12
	c2.28,0,4.12-1.85,4.12-4.12S8.28,1.88,6,1.88S1.88,3.72,1.88,6S3.72,10.12,6,10.12z"/>
</svg>
