<?xml version="1.0" encoding="utf-8"?>
<!-- Generator: Adobe Illustrator 26.1.0, SVG Export Plug-In . SVG Version: 6.00 Build 0)  -->
<svg version="1.1" id="Layer_1" xmlns="http://www.w3.org/2000/svg" xmlns:xlink="http://www.w3.org/1999/xlink" x="0px" y="0px"
	 viewBox="0 0 100 100" style="enable-background:new 0 0 100 100;" xml:space="preserve">
<style type="text/css">
	.st0{fill:#FFFFFF;stroke:#000000;stroke-miterlimit:10;}
</style>
<rect y="0" class="st0" width="100" height="100"/>
<g>
	<rect x="15.4" y="15.4" width="7.7" height="7.7"/>
	<rect x="76.9" y="15.4" width="7.7" height="7.7"/>
	<path d="M92.3,46.2h-7.7v-7.7v-7.7h-7.7v-7.7h-7.7v-7.7h-7.7h-7.7V7.7V0h-7.7v7.7v7.7h-7.7h-7.7v7.7H23v7.7h-7.7v7.7v7.7H7.7H0v7.7
		h7.7h7.7v7.7v7.7h7.7V77h7.7v7.7h7.7h7.7v7.7v7.7h7.7v-7.7v-7.7h7.7h7.7V77H77v-7.7h7.7v-7.7v-7.7h7.7h7.7v-7.7H92.3z M38.5,30.8
		h7.7v7.7v7.7h-7.7h-7.7v-7.7v-7.7H38.5z"/>
	<rect x="15.4" y="76.9" width="7.7" height="7.7"/>
	<rect x="76.9" y="76.9" width="7.7" height="7.7"/>
</g>
</svg>
