<?xml version="1.0" encoding="utf-8"?>
<!-- Generator: Adobe Illustrator 26.1.0, SVG Export Plug-In . SVG Version: 6.00 Build 0)  -->
<svg version="1.1" id="Layer_1" xmlns="http://www.w3.org/2000/svg" xmlns:xlink="http://www.w3.org/1999/xlink" x="0px" y="0px"
	 viewBox="0 0 100 100" style="enable-background:new 0 0 100 100;" xml:space="preserve">
<style type="text/css">
	.st0{fill:#FFFFFF;}
	.st1{fill:#EF4442;}
</style>
<rect class="st0" width="100" height="100"/>
<g>
	<path class="st1" d="M6.14,87.37c0-22.57,0-45.15,0-67.72c0.1-0.25,0.24-0.5,0.29-0.76c0.49-2.23,1.74-3.86,3.79-4.86
		c1.06-0.52,2.17-0.76,3.36-0.75c2.03,0.03,4.07,0.01,6.02,0.01c0.24-0.33,0.38-0.51,0.51-0.7c1.27-1.79,2.95-2.74,5.19-2.69
		c2.51,0.05,5.01,0.02,7.52,0.03c1.8,0.01,3.19,0.84,4.3,2.2c0.29,0.36,0.56,0.73,0.8,1.05c2.15,0,4.22,0,6.34,0
		c0.04-0.61,0.07-1.11,0.11-1.61c0.22-3,2.61-5.23,5.62-5.23c8.45,0,16.9,0.09,25.35-0.05c2.71-0.04,5.62,2.35,5.73,5.45
		c0.02,0.49,0.08,0.98,0.12,1.55c2.01,0,3.87-0.04,5.72,0.01c2.1,0.06,3.85,0.89,5.22,2.5c1.35,1.57,1.73,3.44,1.73,5.44
		c0,21.5,0,42.99,0,64.49c0,0.28,0.01,0.56-0.01,0.84c-0.18,3.36-2.06,5.94-5.05,6.75c-1.01,0.28-2.11,0.37-3.16,0.37
		c-23.73,0.02-47.45,0.02-71.18,0.02c-0.37,0-0.74,0.02-1.11-0.01c-3.6-0.24-6.24-2.25-6.93-5.72C6.37,87.76,6.23,87.57,6.14,87.37z
		 M26.16,53.47c-0.03,12.71,10.22,23.9,23.9,23.89c13.68-0.02,23.81-11.21,23.86-23.8c0.05-13.02-10.64-23.94-23.84-23.96
		C36.84,29.57,26.12,40.49,26.16,53.47z M15.37,27.52c1.11,0,2.23-0.09,3.33,0.02c1.18,0.12,2.09-1.03,2.15-1.77
		c0.07-0.93-0.82-1.89-1.99-1.92c-2.36-0.07-4.73-0.07-7.09,0c-1.19,0.03-2.04,0.95-1.99,1.91c0.05,0.98,0.94,1.74,2.12,1.76
		C13.05,27.53,14.21,27.52,15.37,27.52z M15.23,33.65C15.23,33.65,15.23,33.64,15.23,33.65c1.2,0,2.41,0.03,3.61-0.01
		c1.11-0.04,1.8-0.69,1.84-1.67c0.04-1.01-0.52-1.77-1.67-1.82c-2.45-0.1-4.9-0.1-7.35-0.01c-1.21,0.05-1.82,0.88-1.71,1.93
		c0.09,0.93,0.82,1.55,1.95,1.58C13.01,33.67,14.12,33.65,15.23,33.65z"/>
	<path class="st1" d="M50.03,35.59c9.74,0.07,17.88,7.73,17.87,17.87c0,10.04-7.83,17.95-17.95,17.9
		c-10.17-0.05-17.81-8.11-17.8-17.92C32.16,43.45,40.13,35.69,50.03,35.59z M50.08,57.89c2.48-0.01,4.37-1.91,4.37-4.4
		c0-2.48-1.92-4.45-4.33-4.46c-2.55-0.01-4.5,1.91-4.51,4.43C45.61,56.03,47.5,57.9,50.08,57.89z M38.13,52.34
		c0,0.28-0.1,0.61,0.02,0.82c0.2,0.36,0.49,0.83,0.83,0.93c0.48,0.14,0.86-0.25,0.96-0.77c0.09-0.45,0.15-0.91,0.21-1.37
		c0.5-4.51,3.85-8.23,8.27-9.13c0.72-0.15,1.47-0.18,2.19-0.29c0.7-0.11,1.06-0.51,1-1.09c-0.07-0.65-0.57-0.78-1.09-0.85
		c-0.18-0.03-0.37,0-0.55,0.04c-1.39,0.32-2.83,0.52-4.16,1.01C41.66,43.15,38.26,47.96,38.13,52.34z"/>
</g>
</svg>
