<?xml version="1.0" standalone="no"?>
<!DOCTYPE svg PUBLIC "-//W3C//DTD SVG 20010904//EN"
 "http://www.w3.org/TR/2001/REC-SVG-20010904/DTD/svg10.dtd">
<svg version="1.0" xmlns="http://www.w3.org/2000/svg"
 width="700.000000pt" height="700.000000pt" viewBox="0 0 700.000000 700.000000"
 preserveAspectRatio="xMidYMid meet">
<metadata>
Created by potrace 1.14, written by Peter Selinger 2001-2017
</metadata>
<g transform="translate(0.000000,700.000000) scale(0.100000,-0.100000)"
fill="#000000" stroke="none">
<path d="M4552 6716 c-341 -186 -551 -544 -628 -1066 -37 -256 11 -505 120
-613 103 -103 241 -115 501 -41 125 35 191 67 346 171 183 123 393 245 646
375 134 69 222 120 237 139 67 80 55 219 -20 219 -29 0 -205 -87 -289 -143
-33 -21 -116 -79 -185 -127 -193 -136 -605 -357 -817 -438 -150 -58 -187 -41
-265 126 -66 140 -65 161 10 230 94 89 174 145 302 212 208 110 357 240 435
381 26 47 30 64 30 134 0 102 -24 156 -133 297 -148 190 -178 205 -290 144z
m171 -267 c43 -22 107 -93 113 -125 11 -61 -24 -102 -216 -249 -214 -165 -305
-239 -377 -307 -75 -71 -87 -78 -96 -54 -8 20 46 221 82 305 80 188 226 373
334 422 47 21 127 25 160 8z"/>
<path d="M2268 6573 c-15 -16 -37 -61 -50 -103 -31 -101 -31 -277 0 -393 28
-103 77 -204 103 -212 58 -19 105 67 124 230 22 195 -14 412 -82 487 -24 27
-65 22 -95 -9z"/>
<path d="M6040 6487 c-24 -12 -25 -17 -24 -102 1 -60 7 -103 18 -129 29 -70
146 -1040 211 -1752 19 -215 53 -530 75 -700 65 -494 79 -564 120 -605 26 -27
84 -49 127 -49 46 0 103 115 103 210 0 29 -17 93 -45 173 -81 230 -96 304
-135 682 -61 579 -186 1429 -296 2012 -37 197 -54 245 -91 262 -30 14 -32 14
-63 -2z"/>
<path d="M1276 6374 c-3 -9 -6 -29 -6 -46 0 -16 -15 -57 -34 -91 -46 -83 -49
-107 -37 -239 6 -62 16 -230 21 -373 5 -143 15 -292 21 -331 7 -38 9 -87 5
-107 -8 -45 -48 -93 -90 -111 -17 -7 -103 -70 -191 -140 -88 -70 -173 -134
-189 -143 -38 -20 -46 -7 -46 77 0 121 -21 294 -61 515 -27 147 -43 273 -49
380 -12 191 -43 403 -64 423 -19 20 -26 14 -88 -76 l-53 -77 2 -80 c5 -204 24
-435 47 -595 29 -196 62 -509 72 -675 8 -139 5 -147 -118 -253 -157 -136 -268
-267 -268 -316 0 -28 27 -66 47 -66 21 0 101 45 235 132 60 39 114 68 122 65
10 -4 16 -35 20 -114 16 -278 30 -436 72 -793 76 -649 104 -842 130 -892 14
-27 18 -28 84 -28 60 0 71 3 80 21 6 11 9 32 6 47 -3 15 -19 91 -36 170 -34
161 -51 328 -79 812 -45 759 -54 947 -48 972 5 18 27 41 65 67 32 22 129 94
216 161 86 66 168 126 182 132 47 22 44 35 149 -642 47 -305 113 -710 146
-900 33 -190 64 -385 69 -433 9 -92 26 -127 61 -127 27 0 56 45 70 106 10 44
10 99 0 267 -19 318 -37 476 -81 689 -48 238 -61 318 -100 628 -17 135 -40
311 -51 392 -24 174 -19 210 39 264 20 19 141 107 267 195 241 168 295 214
295 251 -1 34 -35 103 -60 121 -26 18 -67 9 -114 -26 -55 -42 -392 -274 -415
-286 -26 -15 -57 -7 -66 17 -8 21 -77 504 -99 692 -9 74 -16 179 -16 232 0 53
-4 108 -10 122 -11 29 -44 35 -54 10z"/>
<path d="M3569 6176 c-25 -6 -65 -24 -90 -38 -145 -86 -222 -211 -280 -451
-28 -118 -31 -114 -58 78 -24 165 -30 175 -117 175 -49 0 -54 -2 -60 -26 -19
-73 7 -261 145 -1064 78 -454 146 -842 152 -862 8 -31 14 -38 34 -38 16 0 30
10 41 28 10 15 27 43 39 62 13 19 26 47 29 62 9 38 -20 280 -50 418 -40 187
-54 305 -54 480 0 229 28 399 99 605 82 234 172 335 323 360 21 3 59 23 88 46
43 34 50 44 50 74 0 45 -26 69 -99 89 -67 19 -128 20 -192 2z"/>
<path d="M2363 5725 c-25 -18 -43 -71 -43 -129 0 -70 220 -1858 240 -1950 30
-136 58 -154 144 -88 71 54 86 88 86 194 0 103 -48 497 -85 688 -57 304 -110
696 -135 1000 -15 197 -24 233 -66 269 -27 24 -44 31 -77 31 -23 0 -52 -7 -64
-15z"/>
<path d="M4627 3950 c-42 -28 -108 -85 -147 -127 -65 -69 -82 -97 -175 -287
-190 -388 -245 -574 -245 -828 0 -290 111 -520 324 -669 79 -56 92 -58 209
-28 115 28 269 106 384 193 132 100 471 423 500 478 31 57 30 112 -2 143 -28
29 -45 31 -88 9 -64 -33 -121 -90 -313 -312 -258 -298 -318 -347 -465 -378
-105 -22 -165 -7 -225 58 -92 97 -165 359 -119 425 8 12 71 61 140 108 221
155 393 359 467 557 28 74 32 97 36 220 5 161 -11 253 -63 364 -41 85 -77 124
-116 124 -16 0 -57 -20 -102 -50z m107 -253 c19 -25 21 -42 21 -150 0 -119 -1
-123 -32 -178 -97 -167 -349 -460 -433 -504 -76 -39 -77 2 -6 218 91 274 182
444 314 585 68 73 99 79 136 29z"/>
<path d="M3780 3848 c-148 -72 -460 -508 -645 -902 -101 -214 -224 -569 -249
-718 -9 -52 -38 -67 -69 -36 -54 55 -306 553 -408 807 -65 163 -87 191 -148
191 -21 0 -44 -6 -50 -14 -6 -7 -19 -67 -28 -132 -19 -136 -20 -425 -3 -794
17 -365 23 -1004 12 -1308 -5 -155 -6 -299 -1 -319 24 -109 142 -64 185 70 16
53 17 69 5 215 -7 86 -17 375 -22 642 -5 267 -13 580 -19 695 -13 296 -14 285
10 285 14 0 30 -15 48 -46 15 -25 78 -128 140 -227 109 -176 142 -235 216
-399 32 -72 37 -78 65 -78 35 0 66 34 76 83 4 18 40 122 80 232 197 543 312
790 481 1037 40 59 83 127 95 150 12 24 28 51 37 61 17 19 57 23 68 6 16 -26
34 -326 44 -714 10 -417 17 -529 46 -760 12 -99 15 -178 10 -328 -5 -176 -3
-199 11 -204 27 -11 107 16 132 44 l23 27 -5 560 c-3 403 -10 623 -22 781 -23
279 -26 793 -6 948 20 166 -3 197 -109 145z"/>
<path d="M6373 2642 c-27 -22 -94 -156 -123 -247 -16 -51 -22 -96 -23 -165 -1
-119 16 -160 77 -190 122 -59 261 15 340 180 27 57 31 76 31 150 0 70 -4 93
-23 128 -65 122 -212 198 -279 144z"/>
<path d="M5345 1854 c-243 -32 -495 -111 -725 -225 -299 -149 -483 -297 -606
-488 -76 -117 -88 -133 -113 -146 -41 -21 -140 -126 -162 -173 -37 -75 -1
-137 76 -130 l43 3 7 -65 c11 -97 39 -163 101 -229 61 -66 153 -119 254 -147
298 -82 1067 102 1595 380 169 89 234 129 324 196 212 160 300 325 287 541
l-6 95 43 21 c76 37 107 70 107 113 0 75 -75 99 -201 64 l-57 -16 -69 53
c-108 83 -155 100 -300 110 -68 5 -202 20 -299 34 -96 14 -180 25 -187 24 -7
-1 -57 -7 -112 -15z m172 -135 c-42 -32 -51 -56 -32 -85 8 -13 24 -24 34 -24
10 0 67 17 127 37 104 36 115 38 240 38 l131 0 87 -43 c47 -24 103 -59 123
-79 74 -75 117 -225 94 -334 -25 -119 -148 -272 -301 -374 -232 -154 -659
-332 -1007 -419 -576 -145 -787 -139 -955 30 -69 69 -83 104 -82 204 2 160 75
334 208 494 87 104 299 262 462 344 241 121 617 220 874 230 l25 1 -28 -20z"/>
<path d="M5215 1466 c-30 -30 -49 -98 -40 -144 7 -40 54 -92 83 -92 26 0 69
35 87 70 55 107 -52 244 -130 166z"/>
<path d="M4856 1307 c-64 -64 -29 -187 52 -187 14 0 38 14 58 34 29 29 34 41
34 79 0 59 -23 87 -77 94 -35 5 -45 2 -67 -20z"/>
<path d="M5643 1275 c-13 -9 -29 -39 -38 -72 -36 -122 -121 -258 -221 -354
-109 -103 -271 -197 -378 -219 -193 -40 -363 91 -471 361 -40 101 -80 132
-119 93 -24 -23 -19 -63 18 -155 99 -246 248 -389 440 -422 128 -22 310 41
471 162 166 126 256 235 339 413 54 113 61 161 30 192 -19 20 -43 20 -71 1z"/>
</g>
</svg>
